<svg width="273" height="75" viewBox="0 0 273 75" fill="none" xmlns="http://www.w3.org/2000/svg">
<rect width="273" height="75" rx="12" fill="black"/>
<path d="M62.064 39.382C62.04 35.29 63.894 32.206 67.6379 29.932C65.5439 26.932 62.376 25.282 58.2 24.964C54.246 24.652 49.92 27.268 48.336 27.268C46.662 27.268 42.834 25.072 39.822 25.072C33.606 25.168 27 30.028 27 39.916C27 42.838 27.534 45.856 28.602 48.964C30.03 53.0559 35.178 63.0819 40.548 62.9199C43.356 62.8539 45.342 60.9279 48.996 60.9279C52.542 60.9279 54.378 62.9199 57.51 62.9199C62.928 62.8419 67.5839 53.7279 68.9399 49.624C61.674 46.198 62.064 39.592 62.064 39.382V39.382ZM55.758 21.082C58.8 17.47 58.524 14.182 58.434 13C55.746 13.156 52.638 14.83 50.868 16.888C48.918 19.096 47.772 21.826 48.018 24.904C50.922 25.126 53.574 23.632 55.758 21.082V21.082Z" fill="white"/>
<path d="M88.1076 22.12C89.9676 22.12 91.4256 22.636 92.4816 23.668C93.5496 24.688 94.0836 26.152 94.0836 28.06C94.0836 29.968 93.5496 31.438 92.4816 32.47C91.4256 33.49 89.9676 34 88.1076 34H84.2736V22.12H88.1076ZM88.2516 32.65C89.6076 32.65 90.6636 32.248 91.4196 31.444C92.1876 30.628 92.5716 29.5 92.5716 28.06C92.5716 26.62 92.1876 25.498 91.4196 24.694C90.6636 23.878 89.6076 23.47 88.2516 23.47H85.7136V32.65H88.2516ZM100.342 24.82C101.194 24.82 101.944 25.006 102.592 25.378C103.252 25.75 103.768 26.29 104.14 26.998C104.512 27.694 104.698 28.528 104.698 29.5C104.698 30.472 104.512 31.312 104.14 32.02C103.768 32.716 103.252 33.25 102.592 33.622C101.944 33.994 101.194 34.18 100.342 34.18C99.5022 34.18 98.7522 33.994 98.0922 33.622C97.4322 33.25 96.9162 32.716 96.5442 32.02C96.1722 31.312 95.9862 30.472 95.9862 29.5C95.9862 28.528 96.1722 27.694 96.5442 26.998C96.9162 26.29 97.4322 25.75 98.0922 25.378C98.7522 25.006 99.5022 24.82 100.342 24.82ZM100.342 26.062C99.7302 26.062 99.2082 26.2 98.7762 26.476C98.3442 26.752 98.0082 27.148 97.7682 27.664C97.5402 28.168 97.4262 28.78 97.4262 29.5C97.4262 30.208 97.5402 30.82 97.7682 31.336C98.0082 31.852 98.3442 32.248 98.7762 32.524C99.2082 32.8 99.7302 32.938 100.342 32.938C100.954 32.938 101.476 32.8 101.908 32.524C102.34 32.248 102.67 31.852 102.898 31.336C103.138 30.82 103.258 30.208 103.258 29.5C103.258 28.78 103.138 28.168 102.898 27.664C102.67 27.148 102.34 26.752 101.908 26.476C101.476 26.2 100.954 26.062 100.342 26.062ZM118.054 25H119.656L116.524 34H115.084L112.546 26.836L110.152 34H108.712L105.58 25H107.182L109.45 32.326L111.898 25H113.338L115.786 32.326L118.054 25ZM121.455 34V25H122.715L122.841 27.016L122.607 26.818C122.799 26.338 123.057 25.954 123.381 25.666C123.705 25.366 124.077 25.15 124.497 25.018C124.929 24.886 125.373 24.82 125.829 24.82C126.477 24.82 127.065 24.946 127.593 25.198C128.121 25.438 128.541 25.81 128.853 26.314C129.177 26.818 129.339 27.46 129.339 28.24V34H127.899V28.744C127.899 27.748 127.683 27.058 127.251 26.674C126.831 26.278 126.309 26.08 125.685 26.08C125.253 26.08 124.821 26.182 124.389 26.386C123.957 26.59 123.597 26.92 123.309 27.376C123.033 27.832 122.895 28.444 122.895 29.212V34H121.455ZM133.607 20.86V31.714C133.607 32.17 133.691 32.488 133.859 32.668C134.027 32.836 134.297 32.92 134.669 32.92C134.909 32.92 135.107 32.902 135.263 32.866C135.419 32.83 135.629 32.764 135.893 32.668L135.659 33.928C135.467 34.012 135.257 34.072 135.029 34.108C134.801 34.156 134.567 34.18 134.327 34.18C133.595 34.18 133.049 33.982 132.689 33.586C132.341 33.19 132.167 32.584 132.167 31.768V20.86H133.607ZM141.107 24.82C141.959 24.82 142.709 25.006 143.357 25.378C144.017 25.75 144.533 26.29 144.905 26.998C145.277 27.694 145.463 28.528 145.463 29.5C145.463 30.472 145.277 31.312 144.905 32.02C144.533 32.716 144.017 33.25 143.357 33.622C142.709 33.994 141.959 34.18 141.107 34.18C140.267 34.18 139.517 33.994 138.857 33.622C138.197 33.25 137.681 32.716 137.309 32.02C136.937 31.312 136.751 30.472 136.751 29.5C136.751 28.528 136.937 27.694 137.309 26.998C137.681 26.29 138.197 25.75 138.857 25.378C139.517 25.006 140.267 24.82 141.107 24.82ZM141.107 26.062C140.495 26.062 139.973 26.2 139.541 26.476C139.109 26.752 138.773 27.148 138.533 27.664C138.305 28.168 138.191 28.78 138.191 29.5C138.191 30.208 138.305 30.82 138.533 31.336C138.773 31.852 139.109 32.248 139.541 32.524C139.973 32.8 140.495 32.938 141.107 32.938C141.719 32.938 142.241 32.8 142.673 32.524C143.105 32.248 143.435 31.852 143.663 31.336C143.903 30.82 144.023 30.208 144.023 29.5C144.023 28.78 143.903 28.168 143.663 27.664C143.435 27.148 143.105 26.752 142.673 26.476C142.241 26.2 141.719 26.062 141.107 26.062ZM153.07 28.186C153.07 27.514 152.89 26.998 152.53 26.638C152.17 26.266 151.66 26.08 151 26.08C150.376 26.08 149.848 26.218 149.416 26.494C148.984 26.758 148.666 27.19 148.462 27.79L147.292 27.07C147.532 26.398 147.976 25.858 148.624 25.45C149.272 25.03 150.076 24.82 151.036 24.82C151.684 24.82 152.272 24.934 152.8 25.162C153.328 25.378 153.742 25.714 154.042 26.17C154.354 26.614 154.51 27.19 154.51 27.898V32.254C154.51 32.686 154.738 32.902 155.194 32.902C155.422 32.902 155.644 32.872 155.86 32.812L155.788 33.946C155.548 34.066 155.236 34.126 154.852 34.126C154.504 34.126 154.192 34.06 153.916 33.928C153.64 33.796 153.424 33.598 153.268 33.334C153.112 33.058 153.034 32.716 153.034 32.308V32.128L153.394 32.182C153.25 32.65 153.004 33.034 152.656 33.334C152.308 33.622 151.918 33.838 151.486 33.982C151.054 34.114 150.628 34.18 150.208 34.18C149.68 34.18 149.188 34.09 148.732 33.91C148.276 33.73 147.91 33.46 147.634 33.1C147.37 32.728 147.238 32.272 147.238 31.732C147.238 31.06 147.46 30.508 147.904 30.076C148.36 29.632 148.99 29.332 149.794 29.176L153.358 28.474V29.662L150.46 30.256C149.872 30.376 149.434 30.544 149.146 30.76C148.858 30.976 148.714 31.276 148.714 31.66C148.714 32.032 148.858 32.338 149.146 32.578C149.446 32.806 149.866 32.92 150.406 32.92C150.754 32.92 151.084 32.878 151.396 32.794C151.72 32.698 152.008 32.56 152.26 32.38C152.512 32.188 152.71 31.954 152.854 31.678C152.998 31.39 153.07 31.054 153.07 30.67V28.186ZM161.16 34.18C160.416 34.18 159.732 33.994 159.108 33.622C158.484 33.25 157.986 32.716 157.614 32.02C157.242 31.312 157.056 30.472 157.056 29.5C157.056 28.504 157.254 27.658 157.65 26.962C158.046 26.266 158.568 25.738 159.216 25.378C159.864 25.006 160.56 24.82 161.304 24.82C162.048 24.82 162.69 25.012 163.23 25.396C163.782 25.78 164.148 26.29 164.328 26.926L164.148 27.052V20.86H165.588V34H164.328L164.202 31.822L164.4 31.714C164.316 32.242 164.112 32.692 163.788 33.064C163.476 33.424 163.086 33.7 162.618 33.892C162.162 34.084 161.676 34.18 161.16 34.18ZM161.304 32.92C161.88 32.92 162.378 32.776 162.798 32.488C163.23 32.2 163.56 31.792 163.788 31.264C164.028 30.724 164.148 30.094 164.148 29.374C164.148 28.69 164.028 28.102 163.788 27.61C163.56 27.118 163.236 26.74 162.816 26.476C162.408 26.212 161.928 26.08 161.376 26.08C160.464 26.08 159.756 26.392 159.252 27.016C158.748 27.64 158.496 28.468 158.496 29.5C158.496 30.532 158.742 31.36 159.234 31.984C159.726 32.608 160.416 32.92 161.304 32.92ZM178.076 24.82C178.928 24.82 179.678 25.006 180.326 25.378C180.986 25.75 181.502 26.29 181.874 26.998C182.246 27.694 182.432 28.528 182.432 29.5C182.432 30.472 182.246 31.312 181.874 32.02C181.502 32.716 180.986 33.25 180.326 33.622C179.678 33.994 178.928 34.18 178.076 34.18C177.236 34.18 176.486 33.994 175.826 33.622C175.166 33.25 174.65 32.716 174.278 32.02C173.906 31.312 173.72 30.472 173.72 29.5C173.72 28.528 173.906 27.694 174.278 26.998C174.65 26.29 175.166 25.75 175.826 25.378C176.486 25.006 177.236 24.82 178.076 24.82ZM178.076 26.062C177.464 26.062 176.942 26.2 176.51 26.476C176.078 26.752 175.742 27.148 175.502 27.664C175.274 28.168 175.16 28.78 175.16 29.5C175.16 30.208 175.274 30.82 175.502 31.336C175.742 31.852 176.078 32.248 176.51 32.524C176.942 32.8 177.464 32.938 178.076 32.938C178.688 32.938 179.21 32.8 179.642 32.524C180.074 32.248 180.404 31.852 180.632 31.336C180.872 30.82 180.992 30.208 180.992 29.5C180.992 28.78 180.872 28.168 180.632 27.664C180.404 27.148 180.074 26.752 179.642 26.476C179.21 26.2 178.688 26.062 178.076 26.062ZM184.782 34V25H186.042L186.168 27.016L185.934 26.818C186.126 26.338 186.384 25.954 186.708 25.666C187.032 25.366 187.404 25.15 187.824 25.018C188.256 24.886 188.7 24.82 189.156 24.82C189.804 24.82 190.392 24.946 190.92 25.198C191.448 25.438 191.868 25.81 192.18 26.314C192.504 26.818 192.666 27.46 192.666 28.24V34H191.226V28.744C191.226 27.748 191.01 27.058 190.578 26.674C190.158 26.278 189.636 26.08 189.012 26.08C188.58 26.08 188.148 26.182 187.716 26.386C187.284 26.59 186.924 26.92 186.636 27.376C186.36 27.832 186.222 28.444 186.222 29.212V34H184.782ZM203.114 22.444V31.516C203.114 31.96 203.24 32.29 203.492 32.506C203.744 32.722 204.068 32.83 204.464 32.83C204.812 32.83 205.112 32.77 205.364 32.65C205.616 32.53 205.844 32.368 206.048 32.164L206.552 33.37C206.276 33.622 205.946 33.82 205.562 33.964C205.19 34.108 204.758 34.18 204.266 34.18C203.81 34.18 203.384 34.102 202.988 33.946C202.592 33.778 202.274 33.52 202.034 33.172C201.806 32.812 201.686 32.344 201.674 31.768V22.84L203.114 22.444ZM206.39 25V26.242H199.874V25H206.39ZM208.171 34V20.86H209.611V26.35C209.923 25.81 210.337 25.42 210.853 25.18C211.369 24.94 211.933 24.82 212.545 24.82C213.193 24.82 213.781 24.946 214.309 25.198C214.837 25.438 215.257 25.81 215.569 26.314C215.893 26.818 216.055 27.46 216.055 28.24V34H214.615V28.744C214.615 27.748 214.399 27.058 213.967 26.674C213.547 26.278 213.025 26.08 212.401 26.08C211.969 26.08 211.537 26.182 211.105 26.386C210.673 26.59 210.313 26.926 210.025 27.394C209.749 27.85 209.611 28.462 209.611 29.23V34H208.171ZM222.718 34.18C221.866 34.18 221.104 33.994 220.432 33.622C219.772 33.25 219.256 32.716 218.884 32.02C218.512 31.312 218.326 30.472 218.326 29.5C218.326 28.528 218.512 27.694 218.884 26.998C219.256 26.29 219.766 25.75 220.414 25.378C221.062 25.006 221.8 24.82 222.628 24.82C223.468 24.82 224.182 25 224.77 25.36C225.37 25.72 225.826 26.212 226.138 26.836C226.45 27.448 226.606 28.138 226.606 28.906C226.606 29.11 226.6 29.296 226.588 29.464C226.576 29.632 226.558 29.782 226.534 29.914H219.262V28.636H225.904L225.166 28.78C225.166 27.916 224.926 27.25 224.446 26.782C223.978 26.314 223.36 26.08 222.592 26.08C222.004 26.08 221.494 26.218 221.062 26.494C220.642 26.758 220.312 27.148 220.072 27.664C219.844 28.168 219.73 28.78 219.73 29.5C219.73 30.208 219.85 30.82 220.09 31.336C220.33 31.852 220.666 32.248 221.098 32.524C221.542 32.788 222.07 32.92 222.682 32.92C223.342 32.92 223.876 32.794 224.284 32.542C224.704 32.29 225.04 31.948 225.292 31.516L226.426 32.182C226.198 32.59 225.904 32.944 225.544 33.244C225.196 33.544 224.782 33.778 224.302 33.946C223.834 34.102 223.306 34.18 222.718 34.18ZM123.503 57H119.963L119.043 54.02H114.523L113.583 57H110.123L114.763 43.8H118.883L123.503 57ZM115.163 51.68H118.403L116.783 46.34L115.163 51.68ZM124.398 61.2V47H127.458L127.638 50.62L127.238 50.2C127.331 49.5333 127.538 48.9467 127.858 48.44C128.178 47.9333 128.591 47.5333 129.098 47.24C129.604 46.9467 130.184 46.8 130.838 46.8C131.664 46.8 132.384 47.0067 132.998 47.42C133.611 47.82 134.084 48.4067 134.418 49.18C134.764 49.94 134.938 50.8667 134.938 51.96C134.938 53.0533 134.764 53.9933 134.418 54.78C134.071 55.5667 133.584 56.1667 132.958 56.58C132.344 56.9933 131.624 57.2 130.798 57.2C129.891 57.2 129.158 56.9333 128.598 56.4C128.038 55.8533 127.664 55.1667 127.478 54.34L127.798 53.86V61.2H124.398ZM129.638 54.7C130.224 54.7 130.684 54.4867 131.018 54.06C131.351 53.62 131.518 52.9333 131.518 52C131.518 51.0667 131.351 50.3867 131.018 49.96C130.698 49.52 130.244 49.3 129.658 49.3C129.284 49.3 128.958 49.4067 128.678 49.62C128.398 49.82 128.178 50.12 128.018 50.52C127.871 50.92 127.798 51.4133 127.798 52C127.798 52.56 127.864 53.0467 127.998 53.46C128.144 53.86 128.358 54.1667 128.638 54.38C128.918 54.5933 129.251 54.7 129.638 54.7ZM136.537 61.2V47H139.597L139.777 50.62L139.377 50.2C139.47 49.5333 139.677 48.9467 139.997 48.44C140.317 47.9333 140.73 47.5333 141.237 47.24C141.743 46.9467 142.323 46.8 142.977 46.8C143.803 46.8 144.523 47.0067 145.137 47.42C145.75 47.82 146.223 48.4067 146.557 49.18C146.903 49.94 147.077 50.8667 147.077 51.96C147.077 53.0533 146.903 53.9933 146.557 54.78C146.21 55.5667 145.723 56.1667 145.097 56.58C144.483 56.9933 143.763 57.2 142.937 57.2C142.03 57.2 141.297 56.9333 140.737 56.4C140.177 55.8533 139.803 55.1667 139.617 54.34L139.937 53.86V61.2H136.537ZM141.777 54.7C142.363 54.7 142.823 54.4867 143.157 54.06C143.49 53.62 143.657 52.9333 143.657 52C143.657 51.0667 143.49 50.3867 143.157 49.96C142.837 49.52 142.383 49.3 141.797 49.3C141.423 49.3 141.097 49.4067 140.817 49.62C140.537 49.82 140.317 50.12 140.157 50.52C140.01 50.92 139.937 51.4133 139.937 52C139.937 52.56 140.003 53.0467 140.137 53.46C140.283 53.86 140.497 54.1667 140.777 54.38C141.057 54.5933 141.39 54.7 141.777 54.7ZM159.399 43.6C160.625 43.6 161.705 43.7933 162.639 44.18C163.585 44.5533 164.405 45.1067 165.099 45.84L163.439 48.06C162.865 47.46 162.245 47.0133 161.579 46.72C160.925 46.4133 160.179 46.26 159.339 46.26C158.845 46.26 158.445 46.3133 158.139 46.42C157.832 46.5267 157.612 46.6733 157.479 46.86C157.345 47.0467 157.279 47.26 157.279 47.5C157.279 47.78 157.405 48.02 157.659 48.22C157.925 48.4067 158.352 48.5667 158.939 48.7L161.159 49.2C162.479 49.5067 163.445 49.9533 164.059 50.54C164.672 51.1267 164.979 51.9067 164.979 52.88C164.979 53.8133 164.739 54.6067 164.259 55.26C163.779 55.9 163.119 56.3867 162.279 56.72C161.439 57.04 160.479 57.2 159.399 57.2C158.519 57.2 157.679 57.1067 156.879 56.92C156.079 56.72 155.359 56.44 154.719 56.08C154.079 55.72 153.539 55.3067 153.099 54.84L154.759 52.54C155.092 52.9267 155.499 53.2733 155.979 53.58C156.472 53.8733 157.005 54.1067 157.579 54.28C158.165 54.4533 158.759 54.54 159.359 54.54C159.825 54.54 160.212 54.4933 160.519 54.4C160.839 54.3067 161.072 54.1667 161.219 53.98C161.365 53.7933 161.439 53.5733 161.439 53.32C161.439 53.04 161.339 52.8067 161.139 52.62C160.939 52.42 160.559 52.2533 159.999 52.12L157.559 51.58C156.812 51.4067 156.145 51.18 155.559 50.9C154.985 50.6067 154.532 50.22 154.199 49.74C153.865 49.2467 153.699 48.6333 153.699 47.9C153.699 47.0733 153.925 46.34 154.379 45.7C154.832 45.0467 155.485 44.5333 156.339 44.16C157.192 43.7867 158.212 43.6 159.399 43.6ZM170.669 43.82V53.44C170.669 53.92 170.782 54.2667 171.009 54.48C171.249 54.68 171.576 54.78 171.989 54.78C172.309 54.78 172.582 54.7467 172.809 54.68C173.049 54.6 173.262 54.4867 173.449 54.34L173.809 56.44C173.476 56.68 173.056 56.8667 172.549 57C172.042 57.1333 171.522 57.2 170.989 57.2C170.229 57.2 169.569 57.0933 169.009 56.88C168.462 56.6667 168.036 56.3267 167.729 55.86C167.436 55.3933 167.282 54.7733 167.269 54V44.76L170.669 43.82ZM173.649 47V49.42H165.549V47H173.649ZM179.58 46.8C180.633 46.8 181.553 47.0067 182.34 47.42C183.14 47.82 183.76 48.4133 184.2 49.2C184.653 49.9733 184.88 50.9067 184.88 52C184.88 53.0933 184.653 54.0333 184.2 54.82C183.76 55.5933 183.14 56.1867 182.34 56.6C181.553 57 180.633 57.2 179.58 57.2C178.553 57.2 177.64 57 176.84 56.6C176.04 56.1867 175.413 55.5933 174.96 54.82C174.52 54.0333 174.3 53.0933 174.3 52C174.3 50.9067 174.52 49.9733 174.96 49.2C175.413 48.4133 176.04 47.82 176.84 47.42C177.64 47.0067 178.553 46.8 179.58 46.8ZM179.58 49.22C179.193 49.22 178.86 49.3133 178.58 49.5C178.3 49.6867 178.086 49.9867 177.94 50.4C177.793 50.8133 177.72 51.3467 177.72 52C177.72 52.6533 177.793 53.1867 177.94 53.6C178.086 54 178.3 54.3 178.58 54.5C178.86 54.6867 179.193 54.78 179.58 54.78C179.98 54.78 180.32 54.6867 180.6 54.5C180.88 54.3 181.093 54 181.24 53.6C181.386 53.1867 181.46 52.6533 181.46 52C181.46 51.3467 181.386 50.8133 181.24 50.4C181.093 49.9867 180.88 49.6867 180.6 49.5C180.32 49.3133 179.98 49.22 179.58 49.22ZM186.392 57V47H189.392L189.532 49.16C189.786 48.4133 190.159 47.8333 190.652 47.42C191.159 47.0067 191.799 46.8 192.572 46.8C192.826 46.8 193.039 46.82 193.212 46.86C193.399 46.9 193.546 46.9533 193.652 47.02L193.312 49.82C193.179 49.7667 193.006 49.7267 192.792 49.7C192.592 49.66 192.346 49.64 192.052 49.64C191.652 49.64 191.279 49.7267 190.932 49.9C190.586 50.0733 190.306 50.3333 190.092 50.68C189.892 51.0133 189.792 51.44 189.792 51.96V57H186.392ZM199.349 57.2C198.242 57.2 197.282 56.9933 196.469 56.58C195.669 56.1667 195.049 55.5733 194.609 54.8C194.169 54.0267 193.949 53.0933 193.949 52C193.949 50.9067 194.169 49.9733 194.609 49.2C195.049 48.4267 195.662 47.8333 196.449 47.42C197.249 47.0067 198.162 46.8 199.189 46.8C200.242 46.8 201.135 47.0067 201.869 47.42C202.615 47.82 203.182 48.38 203.569 49.1C203.955 49.8067 204.149 50.62 204.149 51.54C204.149 51.78 204.142 52.02 204.129 52.26C204.115 52.5 204.095 52.7 204.069 52.86H196.149V51.04H202.569L200.949 51.66C200.949 50.86 200.802 50.2467 200.509 49.82C200.229 49.3933 199.789 49.18 199.189 49.18C198.762 49.18 198.395 49.28 198.089 49.48C197.795 49.68 197.569 49.9933 197.409 50.42C197.262 50.8467 197.189 51.3933 197.189 52.06C197.189 52.7133 197.275 53.2467 197.449 53.66C197.622 54.06 197.869 54.3533 198.189 54.54C198.509 54.7133 198.895 54.8 199.349 54.8C199.855 54.8 200.255 54.7 200.549 54.5C200.855 54.3 201.082 54.02 201.229 53.66L203.949 54.56C203.762 55.1333 203.435 55.62 202.969 56.02C202.515 56.4067 201.969 56.7 201.329 56.9C200.702 57.1 200.042 57.2 199.349 57.2Z" fill="white"/>
</svg>
