<svg width="157" height="148" viewBox="0 0 157 148" fill="none" xmlns="http://www.w3.org/2000/svg">
<path d="M9.02887 128.249C7.74272 128.892 4.24713 133.088 2.77341 135.5C28.4964 136.304 91.7322 135.902 92 135.5C92.8038 134.294 88.6093 130.526 87.4036 128.65C63.5562 128.382 10.315 127.605 9.02887 128.249Z" fill="url(#paint0_linear_1741_3611)"/>
<path d="M29.1349 73.8862C29.1349 73.8862 27.1815 71.0647 24.8665 72.4313C22.5514 73.7978 23.2909 78.854 24.8665 81.378C26.442 83.9021 28.9982 85.1561 30.4049 83.2108" stroke="#151530" stroke-width="1.15" stroke-miterlimit="10"/>
<path d="M25.1152 75.5983C25.1152 75.5983 27.7277 74.7301 29.5766 78.5725" stroke="#151530" stroke-width="0.57" stroke-linecap="round" stroke-linejoin="round"/>
<path d="M28.315 76.6836C28.315 76.6836 25.4774 78.2029 27.3504 80.4858" stroke="#151530" stroke-width="0.57" stroke-linecap="round" stroke-linejoin="round"/>
<path d="M66.7066 74.3525C66.7066 74.3525 68.6599 71.531 70.975 72.8976C73.2901 74.2641 72.5505 79.3203 70.975 81.8443C69.3995 84.3684 66.8432 85.6224 65.4365 83.6771" stroke="#151530" stroke-width="1.15" stroke-miterlimit="10"/>
<path d="M70.726 76.0568C70.726 76.0568 68.1135 75.1886 66.2646 79.031" stroke="#151530" stroke-width="0.57" stroke-linecap="round" stroke-linejoin="round"/>
<path d="M67.5264 77.1499C67.5264 77.1499 70.3639 78.6692 68.491 80.9521" stroke="#151530" stroke-width="0.57" stroke-linecap="round" stroke-linejoin="round"/>
<path d="M35.4287 96.0801V110.581" stroke="#151530" stroke-width="1.15" stroke-linecap="round" stroke-linejoin="round"/>
<path d="M61.208 95.3076V110.581" stroke="#151530" stroke-width="1.15" stroke-linecap="round" stroke-linejoin="round"/>
<path d="M60.6686 96.6808C60.4602 100.235 59.4503 102.705 58.192 104.426L58.1917 104.427C55.3804 108.279 50.0005 109.22 45.8211 106.835L45.8209 106.835C42.8893 105.164 40.4968 102.516 38.8282 100.26C38.3605 99.6278 37.9516 99.0289 37.6055 98.4949C38.1603 98.8873 38.8098 99.3145 39.5381 99.7385C42.0192 101.183 45.4588 102.618 49.1952 102.464C52.9386 102.309 56.0451 100.58 58.1979 98.9163C59.2547 98.0998 60.0902 97.2927 60.6686 96.6808Z" fill="#E9E9EE" stroke="#E9E9EE"/>
<path d="M1 146.505C1 135.492 8.76513 127.269 14.8181 122.526C17.9932 120.043 21.5864 118.17 25.4127 116.916C28.7004 115.846 33.3788 113.821 35.4206 110.573C35.4206 110.573 46.6261 121.787 61.1998 110.573C61.1998 110.573 67.928 115.838 71.2077 116.916C75.042 118.162 78.6271 120.043 81.8023 122.526C87.8633 127.269 95.6204 135.492 95.6204 146.505" stroke="#151530" stroke-width="1.15" stroke-linecap="round" stroke-linejoin="round"/>
<path d="M30.4443 114.81C30.4443 114.81 44.7608 132.985 67.5256 115.027" stroke="#151530" stroke-width="1.15" stroke-linecap="round" stroke-linejoin="round"/>
<path d="M9.32812 127.937H87.4054" stroke="#151530" stroke-width="1.15" stroke-linecap="round" stroke-linejoin="round"/>
<path d="M1.55469 146.644H95.1863" stroke="#151530" stroke-width="1.15" stroke-linecap="round" stroke-linejoin="round"/>
<path d="M3.9502 135.75H93.0723" stroke="#151530" stroke-width="1.15" stroke-linecap="round" stroke-linejoin="round"/>
<path d="M67.219 68.9003C67.219 68.9003 69.534 103.401 48.6823 103.401C27.8306 103.401 29.5026 68.9003 29.5026 68.9003C29.5026 68.9003 28.4978 48.3862 49.3897 48.3862C68.8347 48.3862 67.219 68.9003 67.219 68.9003Z" fill="white" stroke="#151530" stroke-width="1.15" stroke-miterlimit="10"/>
<path d="M66.7585 72.799L65.3551 59.2767L65.2783 58.5358L64.6217 58.8876C59.7605 61.4922 55.6766 61.3178 52.075 60.0233C49.1062 58.9563 46.4741 57.1365 43.9774 55.4104C43.4063 55.0156 42.8424 54.6256 42.283 54.2507C40.8572 53.2945 39.5114 52.904 38.2713 52.9096C37.0343 52.9153 35.9418 53.3149 35.0179 53.8759C33.1852 54.9887 31.9648 56.7677 31.4819 57.5559L31.4819 57.5559L31.4788 57.561C30.6983 58.8702 30.177 60.3155 29.9584 61.8375L29.9583 61.8384L28.5501 71.7729C28.3704 71.0589 28.1935 70.3384 28.0219 69.6147L28.0164 69.5917L28.0088 69.5693C27.4262 67.8534 26.3569 64.411 25.7684 60.7029C25.1757 56.9682 25.0907 53.0783 26.3709 50.396C27.8641 47.2685 30.112 46.2639 32.0326 46.0317C33.9879 45.7954 35.6329 46.3602 35.8317 46.4312L36.1297 46.5377L36.223 46.4443H36.34L36.4812 46.1796C36.5654 46.0217 40.6355 38.6753 52.1001 38.5023L66.7585 72.799ZM66.7585 72.799C67.3797 70.6964 67.9113 68.6144 68.2891 66.5916L68.2954 66.5578L68.3063 66.5251C71.9845 55.5064 70.2454 48.5054 66.527 44.2748C62.7815 40.0133 56.9166 38.4313 52.1003 38.5023L66.7585 72.799ZM36.04 46.4443H36.0494C36.0353 46.4449 36.0305 46.4443 36.04 46.4443Z" fill="#FCFCFF" stroke="#151530"/>
<path d="M74.2327 112.083C60.0513 117.147 47.9175 134.986 49.3795 146.195C86.4995 146.195 156.056 146.882 156.102 146.195C157.076 131.575 142.132 120.042 135.147 114.519C133.198 113.22 127.935 110.426 122.477 109.646C117.019 108.866 113.705 105.423 112.731 103.798V90.6406L109.807 92.1026L103.472 93.5645L97.1366 92.1026L91.7761 89.666C92.101 92.7524 92.5558 99.6073 91.7761 102.336C90.8015 105.747 87.8777 107.209 74.2327 112.083Z" fill="white"/>
<path d="M102.497 134.012C83.7686 134.012 54.7403 129.626 54.7403 129.626C54.7403 129.626 53.2784 131.088 51.8164 134.012C50.3545 136.936 50.3545 138.885 50.3545 138.885C50.3545 138.885 78.1315 142.784 102.741 142.784C127.351 142.784 155.128 138.885 155.128 138.885C155.128 138.885 154.64 136.448 153.178 133.525C151.716 130.601 150.742 129.626 150.742 129.626C150.742 129.626 121.226 134.012 102.497 134.012Z" fill="url(#paint1_linear_1741_3611)" stroke="#151530"/>
<path d="M124.67 50.8591C124.67 50.8591 127.477 91.2967 102.195 91.2967C76.9129 91.2967 78.9401 50.8591 78.9401 50.8591C78.9401 50.8591 77.7218 26.8149 103.053 26.8149C126.629 26.8149 124.67 50.8591 124.67 50.8591Z" fill="white" stroke="#151530" stroke-width="1.13" stroke-miterlimit="10"/>
<path d="M122.916 71.2972C124.622 73.6461 127.926 72.1062 129.846 69.0458C131.756 65.9855 132.653 59.855 129.846 58.1982C127.039 56.5413 124.67 59.9622 124.67 59.9622C124.67 59.9622 123.988 66.1512 123.491 68.4708L122.916 71.2972Z" fill="#F6F6F4" stroke="#151530" stroke-width="1.15" stroke-miterlimit="10"/>
<path d="M125.654 63.354C125.654 63.354 129.095 65.1961 126.824 67.964" stroke="#151530" stroke-width="0.57" stroke-linecap="round" stroke-linejoin="round"/>
<path d="M80.6464 71.268C78.9408 73.6168 75.8414 72.1062 73.9311 69.0458C72.0209 65.9855 71.1242 59.855 73.9311 58.1982C76.7381 56.5413 79.1064 59.9622 79.1064 59.9622" stroke="#151530" stroke-width="1.15" stroke-linecap="round" stroke-linejoin="round"/>
<path d="M74.2422 62.0282C74.2422 62.0282 77.4097 60.9756 79.6514 65.6344" stroke="#151530" stroke-width="0.57" stroke-linecap="round" stroke-linejoin="round"/>
<path d="M78.1119 63.3545C78.1119 63.3545 74.6714 65.1965 76.9423 67.9645" stroke="#151530" stroke-width="0.57" stroke-linecap="round" stroke-linejoin="round"/>
<path d="M101.776 22.559L101.757 22.5582C98.1712 22.4156 94.2293 23.1749 90.0023 25.2835L101.776 22.559ZM101.776 22.559L101.796 22.5582M101.776 22.559L101.796 22.5582M101.796 22.5582C105.392 22.4155 109.334 23.175 113.551 25.2835C122.831 29.9237 125.622 38.4407 126.079 45.8861C126.308 49.6078 125.95 53.0415 125.534 55.5472C125.392 56.3996 125.244 57.1435 125.111 57.7534M101.796 22.5582L125.111 57.7534M125.111 57.7534L124.2 57.838C124.2 57.8447 124.2 57.8513 124.199 57.858C123.858 57.3442 123.437 56.6764 122.99 55.8631C121.939 53.9476 120.745 51.2253 120.114 47.8148L120.038 47.4059H119.622H83.736H83.3358L83.2482 47.7963C82.1497 52.6897 79.7156 56.5043 78.7377 57.8963C78.5889 57.2602 78.4195 56.4647 78.2566 55.5421C77.8142 53.0365 77.4215 49.6029 77.6151 45.8815C78.0025 38.4369 80.7242 29.9228 90.0019 25.2837L125.111 57.7534Z" fill="#FCFCFF" stroke="#151530"/>
<path d="M124.173 10.0917C129.356 15.2745 129.356 23.6776 124.173 28.8605C118.99 34.0434 110.587 34.0433 105.404 28.8605C100.221 23.6776 100.221 15.2745 105.404 10.0917C110.587 4.90879 118.99 4.90879 124.173 10.0917Z" fill="#E9E9EE" stroke="#151530"/>
<path d="M124.172 10.0916C127.274 13.1929 127.274 18.2211 124.172 21.3224C121.071 24.4237 116.043 24.4237 112.942 21.3224C109.84 18.2211 109.84 13.1929 112.942 10.0916C116.043 6.99031 121.071 6.99031 124.172 10.0916Z" fill="#E9E9EE" stroke="#151530"/>
<path d="M119.795 14.4697C121.687 16.362 121.687 19.43 119.795 21.3223C117.902 23.2146 114.834 23.2146 112.942 21.3223C111.05 19.43 111.05 16.362 112.942 14.4697C114.834 12.5774 117.902 12.5774 119.795 14.4697Z" fill="#E9E9EE" stroke="#151530"/>
<path d="M130.606 112.086C130.606 112.086 113.842 108.392 112.663 102.905V88.2754" stroke="#151530" stroke-width="1.15" stroke-linecap="round" stroke-linejoin="round"/>
<path d="M91.6104 88.2363V102.905C91.6104 102.905 87.0003 109.844 74.3496 112.037" stroke="#151530" stroke-width="1.15" stroke-linecap="round" stroke-linejoin="round"/>
<path d="M156.229 146.47C156.229 127.826 137.877 115.769 132.419 112.602C131.541 112.095 130.46 112.095 129.592 112.641C123.871 116.228 100.285 128.878 74.9738 112.28C74.4962 111.968 73.8822 111.939 73.3851 112.212C69.0285 114.649 48.8926 126.939 48.8926 146.47" stroke="#151530" stroke-width="1.15" stroke-linecap="round" stroke-linejoin="round"/>
<path d="M48.8926 146.692H155.633" stroke="black"/>
<path d="M81.9424 110.049C81.9424 110.049 99.6125 120.351 122.945 110" stroke="#151530" stroke-width="1.15" stroke-linecap="round" stroke-linejoin="round"/>
<path d="M110.89 90.276C111.133 90.1619 111.347 90.0533 111.533 89.9543L111.264 92.9813C110.579 95.2055 109.017 96.3745 107.593 96.9966C106.873 97.3108 106.195 97.482 105.696 97.5744C105.447 97.6205 105.245 97.6466 105.106 97.6611C105.037 97.6684 104.984 97.6727 104.95 97.6752C104.933 97.6765 104.92 97.6772 104.912 97.6777L104.904 97.6781L104.904 97.6781L104.904 97.6779L104.89 97.6789C100.67 97.976 97.5006 95.8026 95.356 93.4953C94.2858 92.3438 93.483 91.1709 92.9478 90.285C92.899 90.2042 92.8524 90.1258 92.8081 90.05C98.541 92.3607 103.284 92.3202 106.672 91.6433C108.493 91.2798 109.917 90.7339 110.89 90.276Z" fill="#E9E9EE" stroke="#E9E9EE"/>
<defs>
<linearGradient id="paint0_linear_1741_3611" x1="10.5" y1="136" x2="79.5" y2="132" gradientUnits="userSpaceOnUse">
<stop stop-color="#657ADC"/>
<stop offset="1" stop-color="#FFCFF8"/>
</linearGradient>
<linearGradient id="paint1_linear_1741_3611" x1="50" y1="136" x2="155" y2="136" gradientUnits="userSpaceOnUse">
<stop stop-color="#657ADC"/>
<stop offset="1" stop-color="#FFCFF8"/>
</linearGradient>
</defs>
</svg>
