<svg width="144" height="147" viewBox="0 0 144 147" fill="none" xmlns="http://www.w3.org/2000/svg">
<path d="M71.4922 84V140" stroke="#0F0F17" stroke-miterlimit="10"/>
<path d="M20.4922 146H48.1418L49.8421 145.117C63.593 137.993 80.186 138.327 93.6247 146H123.492" stroke="#0F0F17" stroke-miterlimit="10" stroke-linecap="round"/>
<path d="M71.95 83.2461C88.4338 83.2461 101.797 69.9766 101.797 53.6079C101.797 37.2392 88.4338 23.9697 71.95 23.9697C55.4663 23.9697 42.1035 37.2392 42.1035 53.6079C42.1035 69.9766 55.4663 83.2461 71.95 83.2461Z" fill="url(#paint0_linear_1741_3706)" stroke="#0F0F17" stroke-miterlimit="10"/>
<path d="M71.7223 78.3709C85.4095 78.3709 96.5052 67.2752 96.5052 53.588C96.5052 39.9008 85.4095 28.8052 71.7223 28.8052C58.0351 28.8052 46.9395 39.9008 46.9395 53.588C46.9395 67.2752 58.0351 78.3709 71.7223 78.3709Z" fill="white" stroke="#0F0F17" stroke-miterlimit="10"/>
<g clip-path="url(#clip0_1741_3706)">
<path d="M75.5534 46.4112C76.0042 41.0247 72.2768 40.4891 70.8519 40.665C67.5592 41.0782 66.0779 43.8633 66.5449 46.7862C67.1889 50.8031 72.0845 49.8863 75.6902 55.0267C79.8216 60.9165 76.9783 67.5138 70.554 67.5214C63.3005 67.5291 63.4535 59.9466 65.45 57.4981" stroke="#151530" stroke-miterlimit="10" stroke-linecap="round"/>
<path d="M71.1182 40.8642V37.2681" stroke="#151530" stroke-miterlimit="10"/>
<path d="M71.1182 71.1176V67.5215" stroke="#151530" stroke-miterlimit="10"/>
</g>
<path d="M16.2177 62.6546C24.6222 62.6546 31.4354 55.889 31.4354 47.5431C31.4354 39.1973 24.6222 32.4316 16.2177 32.4316C7.8132 32.4316 1 39.1973 1 47.5431C1 55.889 7.8132 62.6546 16.2177 62.6546Z" fill="url(#paint1_linear_1741_3706)" stroke="#0F0F17" stroke-miterlimit="10"/>
<path d="M16.1017 60.1693C23.0804 60.1693 28.7377 54.512 28.7377 47.5334C28.7377 40.5548 23.0804 34.8975 16.1017 34.8975C9.12312 34.8975 3.46582 40.5548 3.46582 47.5334C3.46582 54.512 9.12312 60.1693 16.1017 60.1693Z" fill="white" stroke="#0F0F17" stroke-miterlimit="10"/>
<path d="M18.055 43.8739C18.2849 41.1275 16.3844 40.8544 15.6579 40.9441C13.9791 41.1548 13.2238 42.5748 13.4619 44.0651C13.7902 46.1132 16.2864 45.6457 18.1248 48.2666C20.2312 51.2697 18.7815 54.6334 15.506 54.6373C11.8077 54.6412 11.8857 50.7751 12.9036 49.5267" stroke="#151530" stroke-miterlimit="10" stroke-linecap="round"/>
<path d="M15.793 41.0455V39.2119" stroke="#151530" stroke-miterlimit="10" stroke-linecap="round"/>
<path d="M15.793 56.4708V54.6372" stroke="#151530" stroke-miterlimit="10" stroke-linecap="round"/>
<path d="M71.4922 140C71.4922 140 78.1589 122.407 101.492 107" stroke="#0F0F17" stroke-miterlimit="10" stroke-linecap="round"/>
<path d="M113.827 96.7946C118.977 100.276 112.023 122.821 95.1366 123.982C90.3799 124.307 85.0737 120.2 83.8927 115.964C79.7675 101.169 108.751 93.3698 113.827 96.8027V96.7946Z" stroke="#0F0F17" stroke-miterlimit="10"/>
<path d="M71.4922 140C71.4922 140 65.0477 122.407 42.4922 107" stroke="#0F0F17" stroke-miterlimit="10" stroke-linecap="round"/>
<path d="M30.1572 96.7946C25.0069 100.276 31.9615 122.821 48.8478 123.982C53.6045 124.307 58.9107 120.2 60.0917 115.964C64.2169 101.169 35.2338 93.3698 30.1572 96.8027V96.7946Z" stroke="#0F0F17" stroke-miterlimit="10"/>
<path d="M122.636 40.8944C133.73 40.8944 142.724 31.9637 142.724 20.9472C142.724 9.93066 133.73 1 122.636 1C111.542 1 102.549 9.93066 102.549 20.9472C102.549 31.9637 111.542 40.8944 122.636 40.8944Z" fill="url(#paint2_linear_1741_3706)" stroke="#0F0F17" stroke-miterlimit="10"/>
<path d="M122.482 37.6132C131.694 37.6132 139.162 30.1456 139.162 20.9338C139.162 11.722 131.694 4.25439 122.482 4.25439C113.27 4.25439 105.803 11.722 105.803 20.9338C105.803 30.1456 113.27 37.6132 122.482 37.6132Z" fill="white" stroke="#0F0F17" stroke-miterlimit="10"/>
<path d="M125.062 16.1035C125.365 12.4782 122.857 12.1177 121.898 12.2362C119.682 12.5143 118.685 14.3887 118.999 16.3558C119.433 19.0593 122.727 18.4423 125.154 21.9019C127.935 25.8659 126.021 30.306 121.697 30.3111C116.816 30.3163 116.919 25.2131 118.262 23.5652" stroke="#151530" stroke-miterlimit="10" stroke-linecap="round"/>
<path d="M122.076 12.3705V9.9502" stroke="#151530" stroke-miterlimit="10" stroke-linecap="round"/>
<path d="M122.076 32.7318V30.3115" stroke="#151530" stroke-miterlimit="10" stroke-linecap="round"/>
<defs>
<linearGradient id="paint0_linear_1741_3706" x1="71.95" y1="23.9697" x2="71.95" y2="83.2461" gradientUnits="userSpaceOnUse">
<stop stop-color="#657ADC"/>
<stop offset="1" stop-color="#FFCFEF"/>
</linearGradient>
<linearGradient id="paint1_linear_1741_3706" x1="16.2177" y1="32.4316" x2="16.2177" y2="62.6546" gradientUnits="userSpaceOnUse">
<stop stop-color="#657ADC"/>
<stop offset="1" stop-color="#FFCFEF"/>
</linearGradient>
<linearGradient id="paint2_linear_1741_3706" x1="122.636" y1="1" x2="122.636" y2="40.8944" gradientUnits="userSpaceOnUse">
<stop stop-color="#657ADC"/>
<stop offset="1" stop-color="#FFCFEF"/>
</linearGradient>
<clipPath id="clip0_1741_3706">
<rect width="14.507" height="33.8498" fill="white" transform="translate(63.8643 37.2681)"/>
</clipPath>
</defs>
</svg>
